<svg xmlns="http://www.w3.org/2000/svg" xmlns:xlink="http://www.w3.org/1999/xlink" width="192" zoomAndPan="magnify" viewBox="0 0 144 143.999998" height="192" preserveAspectRatio="xMidYMid meet" version="1.0"><defs><clipPath id="e34fb40f51"><path d="M 14.453125 63 L 46 63 L 46 99 L 14.453125 99 Z M 14.453125 63 " clip-rule="nonzero"/></clipPath><clipPath id="6ab1cd243b"><path d="M 14.453125 88 L 55 88 L 55 105 L 14.453125 105 Z M 14.453125 88 " clip-rule="nonzero"/></clipPath><clipPath id="edb16d26a0"><path d="M 83 76 L 129.542969 76 L 129.542969 113 L 83 113 Z M 83 76 " clip-rule="nonzero"/></clipPath></defs><path stroke-linecap="round" transform="matrix(0.113319, 0, 0, 0.113319, 86.443047, 43.758779)" fill-opacity="1" fill="#fffbfb" fill-rule="nonzero" stroke-linejoin="round" d="M -0.014482 -55.610481 C 30.699304 -55.610481 55.587466 -30.722318 55.587466 -0.00853267 C 55.587466 30.705253 30.699304 55.593416 -0.014482 55.593416 C -30.693796 55.593416 -55.616431 30.705253 -55.616431 -0.00853267 C -55.616431 -30.722318 -30.693796 -55.610481 -0.014482 -55.610481 Z M -0.014482 -55.610481 " stroke="#879cd0" stroke-width="6" stroke-opacity="1" stroke-miterlimit="4"/><path stroke-linecap="round" transform="matrix(0.113319, 0, 0, 0.113319, 88.414808, 41.473689)" fill="none" stroke-linejoin="round" d="M -38.200602 14.468764 C -38.200602 14.468764 -17.414505 35.427217 -17.414505 35.427217 C -17.414505 35.427217 38.187444 -35.445447 38.187444 -35.445447 " stroke="#879cd0" stroke-width="6" stroke-opacity="1" stroke-miterlimit="4"/><path fill="#879cd0" d="M 114.707031 63.363281 C 114.011719 63.171875 113.355469 62.859375 112.742188 62.421875 C 112.132812 61.988281 111.613281 61.445312 111.191406 60.796875 C 111.191406 60.796875 112.976562 59.566406 112.976562 59.566406 C 113.28125 59.992188 113.636719 60.367188 114.046875 60.695312 C 114.453125 61.023438 114.914062 61.257812 115.417969 61.398438 C 115.925781 61.539062 116.316406 61.554688 116.597656 61.449219 C 116.875 61.34375 117.050781 61.160156 117.125 60.898438 C 117.171875 60.71875 117.179688 60.558594 117.136719 60.414062 C 117.097656 60.273438 117.019531 60.136719 116.910156 60.003906 C 116.800781 59.871094 116.65625 59.734375 116.476562 59.59375 C 116.300781 59.453125 116.105469 59.296875 115.890625 59.125 C 115.890625 59.125 114.71875 58.191406 114.71875 58.191406 C 114.460938 58.007812 114.222656 57.792969 114 57.550781 C 113.777344 57.308594 113.597656 57.042969 113.460938 56.761719 C 113.320312 56.480469 113.234375 56.171875 113.195312 55.835938 C 113.15625 55.503906 113.191406 55.144531 113.292969 54.765625 C 113.410156 54.34375 113.613281 53.972656 113.902344 53.648438 C 114.1875 53.324219 114.539062 53.066406 114.945312 52.878906 C 115.355469 52.691406 115.816406 52.582031 116.324219 52.550781 C 116.832031 52.519531 117.363281 52.582031 117.921875 52.738281 C 118.558594 52.910156 119.136719 53.195312 119.664062 53.589844 C 120.191406 53.988281 120.632812 54.472656 120.984375 55.046875 C 120.984375 55.046875 119.390625 56.191406 119.390625 56.191406 C 119.105469 55.828125 118.800781 55.527344 118.484375 55.285156 C 118.164062 55.042969 117.75 54.851562 117.242188 54.714844 C 116.851562 54.605469 116.515625 54.597656 116.234375 54.691406 C 115.957031 54.785156 115.773438 54.984375 115.6875 55.289062 C 115.605469 55.59375 115.695312 55.875 115.960938 56.121094 C 116.226562 56.371094 116.589844 56.65625 117.046875 56.976562 C 117.046875 56.976562 118.148438 57.859375 118.148438 57.859375 C 118.765625 58.300781 119.210938 58.796875 119.484375 59.347656 C 119.757812 59.902344 119.792969 60.542969 119.59375 61.269531 C 119.472656 61.703125 119.269531 62.085938 118.984375 62.421875 C 118.699219 62.757812 118.347656 63.023438 117.929688 63.222656 C 117.511719 63.417969 117.03125 63.535156 116.488281 63.574219 C 115.945312 63.613281 115.351562 63.542969 114.707031 63.363281 Z M 114.707031 63.363281 " fill-opacity="1" fill-rule="nonzero"/><path fill="#879cd0" d="M 113.863281 64.21875 C 113.863281 64.21875 117.386719 51.414062 117.386719 51.414062 C 117.386719 51.414062 118.378906 51.6875 118.378906 51.6875 C 118.378906 51.6875 114.851562 64.492188 114.851562 64.492188 C 114.851562 64.492188 113.863281 64.21875 113.863281 64.21875 Z M 113.863281 64.21875 " fill-opacity="1" fill-rule="nonzero"/><path stroke-linecap="round" transform="matrix(0.113319, 0, 0, 0.113319, 109.387406, 33.528867)" fill-opacity="1" fill="#fffbfb" fill-rule="nonzero" stroke-linejoin="round" d="M -54.435994 -85.708697 C -54.435994 -85.708697 54.458336 -85.708697 54.458336 -85.708697 C 54.458336 -85.708697 54.458336 85.68181 54.458336 85.68181 C 54.458336 85.68181 -54.435994 85.68181 -54.435994 85.68181 C -54.435994 85.68181 -54.435994 -85.708697 -54.435994 -85.708697 Z M -54.435994 -85.708697 " stroke="#879cd0" stroke-width="6" stroke-opacity="1" stroke-miterlimit="4"/><path stroke-linecap="round" transform="matrix(0.113319, 0, 0, 0.113319, 109.424798, 34.187256)" fill-opacity="1" fill="#fffbfb" fill-rule="nonzero" stroke-linejoin="round" d="M -39.943374 -32.22836 C -39.943374 -32.22836 39.960728 -32.22836 39.960728 -32.22836 C 39.960728 -32.22836 39.960728 32.232671 39.960728 32.232671 C 39.960728 32.232671 -39.943374 32.232671 -39.943374 32.232671 C -39.943374 32.232671 -39.943374 -32.22836 -39.943374 -32.22836 Z M -39.943374 -32.22836 " stroke="#879cd0" stroke-width="6" stroke-opacity="1" stroke-miterlimit="4"/><path stroke-linecap="round" transform="matrix(0.113319, 0, 0, 0.113319, 109.406097, 27.361458)" fill-opacity="1" fill="#fffbfb" fill-rule="nonzero" stroke-linejoin="round" d="M -40.123058 -16.116403 C -40.123058 -16.116403 40.125755 -16.116403 40.125755 -16.116403 C 40.125755 -16.116403 40.125755 16.114113 40.125755 16.114113 C 40.125755 16.114113 -40.123058 16.114113 -40.123058 16.114113 C -40.123058 16.114113 -40.123058 -16.116403 -40.123058 -16.116403 Z M -40.123058 -16.116403 " stroke="#879cd0" stroke-width="6" stroke-opacity="1" stroke-miterlimit="4"/><path stroke-linecap="round" transform="matrix(0.113319, 0, 0, 0.113319, 107.141971, 40.355796)" fill-opacity="1" fill="#fffbfb" fill-rule="nonzero" stroke-linejoin="round" d="M -20.143023 -10.619996 C -20.143023 -10.619996 20.15374 -10.619996 20.15374 -10.619996 C 20.15374 -10.619996 20.15374 10.614227 20.15374 10.614227 C 20.15374 10.614227 -20.143023 10.614227 -20.143023 10.614227 C -20.143023 10.614227 -20.143023 -10.619996 -20.143023 -10.619996 Z M -20.143023 -10.619996 " stroke="#879cd0" stroke-width="6" stroke-opacity="1" stroke-miterlimit="4"/><path stroke-linecap="round" transform="matrix(0.113319, 0, 0, 0.113319, 112.473093, 40.355796)" fill-opacity="1" fill="#fffbfb" fill-rule="nonzero" stroke-linejoin="round" d="M -13.068416 -10.619996 C -13.068416 -10.619996 13.060708 -10.619996 13.060708 -10.619996 C 13.060708 -10.619996 13.060708 10.614227 13.060708 10.614227 C 13.060708 10.614227 -13.068416 10.614227 -13.068416 10.614227 C -13.068416 10.614227 -13.068416 -10.619996 -13.068416 -10.619996 Z M -13.068416 -10.619996 " stroke="#879cd0" stroke-width="6" stroke-opacity="1" stroke-miterlimit="4"/><path fill="#f9a55d" d="M 93.136719 95.109375 C 93.136719 95.109375 88.824219 95.109375 88.824219 95.109375 C 88.824219 95.109375 89.113281 94.773438 89.113281 94.773438 C 89.113281 94.773438 93.058594 94.773438 93.058594 94.773438 C 87.066406 69 83.183594 63.582031 83.183594 63.582031 C 83.183594 63.582031 80.195312 65.492188 80.195312 65.492188 C 80.195312 65.492188 78.226562 94.773438 78.226562 94.773438 C 78.226562 94.773438 85.144531 94.773438 85.144531 94.773438 C 85.144531 94.773438 85.113281 95.109375 85.113281 95.109375 C 85.113281 95.109375 84.941406 95.109375 84.941406 95.109375 C 84.941406 95.109375 84.941406 95.25 84.941406 95.25 C 84.941406 95.25 84.839844 100.898438 86.859375 102.917969 C 86.859375 102.917969 94.070312 99.242188 94.070312 99.242188 C 93.753906 97.808594 93.441406 96.433594 93.132812 95.109375 C 93.132812 95.109375 93.136719 95.109375 93.136719 95.109375 Z M 93.136719 95.109375 " fill-opacity="1" fill-rule="nonzero"/><path fill="#f9a55d" d="M 83.1875 63.582031 C 79.050781 61.429688 75.058594 59.996094 71.273438 59.09375 C 71.273438 59.101562 71.273438 59.109375 71.273438 59.113281 C 71.273438 63.140625 67.714844 66.40625 63.324219 66.40625 C 58.929688 66.40625 55.371094 63.140625 55.371094 59.113281 C 55.371094 58.769531 55.398438 58.433594 55.449219 58.101562 C 45.058594 59.257812 38.441406 63.582031 38.441406 63.582031 C 43.078125 68.21875 41.839844 94.773438 41.839844 94.773438 C 41.839844 94.773438 84.390625 94.773438 84.390625 94.773438 C 86.132812 87.6875 83.183594 63.582031 83.183594 63.582031 C 83.183594 63.582031 83.1875 63.582031 83.1875 63.582031 Z M 83.1875 63.582031 " fill-opacity="1" fill-rule="nonzero"/><path fill="#f9a55d" d="M 71.273438 59.09375 C 70.433594 57.964844 69.59375 57.070312 68.761719 56.367188 C 68.6875 59.5 66.28125 62.019531 63.320312 62.019531 C 60.359375 62.019531 57.875 59.421875 57.875 56.21875 C 57.875 56.136719 57.878906 56.058594 57.882812 55.976562 C 56.367188 57.015625 55.453125 58.101562 55.453125 58.101562 C 55.402344 58.433594 55.375 58.769531 55.375 59.117188 C 55.375 63.140625 58.933594 66.40625 63.324219 66.40625 C 67.714844 66.40625 71.273438 63.140625 71.273438 59.117188 C 71.273438 59.109375 71.273438 59.101562 71.273438 59.09375 Z M 71.273438 59.09375 " fill-opacity="1" fill-rule="nonzero"/><path stroke-linecap="round" transform="matrix(0.113319, 0, 0, 0.113319, 64.631906, 78.386906)" fill="none" stroke-linejoin="round" d="M -7.954836 -144.608085 C -7.954836 -144.608085 -1.43979 -125.200834 -7.954836 -105.828053 C -7.954836 -105.828053 4.041121 -69.874654 4.041121 -69.874654 C 4.041121 -69.874654 7.93636 -47.433942 7.93636 -8.03343 C 7.93636 -8.03343 7.93636 144.604778 7.93636 144.604778 " stroke="#000001" stroke-width="6" stroke-opacity="1" stroke-miterlimit="4"/><path fill="#fde5cc" d="M 58.914062 51.226562 C 58.914062 51.226562 57.933594 55.722656 57.933594 55.722656 C 57.933594 55.722656 57.882812 55.976562 57.882812 55.976562 C 57.878906 56.054688 57.875 56.132812 57.875 56.214844 C 57.875 59.417969 60.3125 62.015625 63.320312 62.015625 C 65.6875 62.015625 67.699219 60.402344 68.449219 58.152344 C 68.636719 57.589844 68.746094 56.992188 68.761719 56.363281 C 68.761719 56.363281 69.144531 53.597656 69.144531 53.597656 C 69.144531 53.597656 58.914062 51.222656 58.914062 51.222656 C 58.914062 51.222656 58.914062 51.226562 58.914062 51.226562 Z M 58.914062 51.226562 " fill-opacity="1" fill-rule="nonzero"/><path fill="#000001" d="M 69.144531 53.738281 C 69.144531 53.738281 58.914062 51.363281 58.914062 51.363281 C 58.914062 51.363281 57.933594 55.859375 57.933594 55.859375 C 58.546875 57.234375 59.855469 58.90625 62.683594 59.59375 C 62.683594 59.59375 65.789062 60.710938 68.449219 58.289062 C 68.636719 57.726562 68.746094 57.128906 68.761719 56.5 C 68.761719 56.5 69.144531 53.734375 69.144531 53.734375 C 69.144531 53.734375 69.144531 53.738281 69.144531 53.738281 Z M 69.144531 53.738281 " fill-opacity="1" fill-rule="nonzero"/><path fill="#879cd0" d="M 68.738281 72.117188 C 69.527344 72.117188 70.164062 72.757812 70.164062 73.546875 C 70.164062 74.335938 69.527344 74.972656 68.738281 74.972656 C 67.949219 74.972656 67.308594 74.335938 67.308594 73.546875 C 67.308594 72.757812 67.949219 72.117188 68.738281 72.117188 Z M 68.738281 72.117188 " fill-opacity="1" fill-rule="nonzero"/><path fill="#879cd0" d="M 68.953125 78.804688 C 69.742188 78.804688 70.382812 79.441406 70.382812 80.230469 C 70.382812 81.019531 69.742188 81.660156 68.953125 81.660156 C 68.164062 81.660156 67.527344 81.019531 67.527344 80.230469 C 67.527344 79.441406 68.164062 78.804688 68.953125 78.804688 Z M 68.953125 78.804688 " fill-opacity="1" fill-rule="nonzero"/><path fill="#879cd0" d="M 68.953125 85.753906 C 69.742188 85.753906 70.382812 86.394531 70.382812 87.179688 C 70.382812 87.96875 69.742188 88.609375 68.953125 88.609375 C 68.164062 88.609375 67.527344 87.96875 67.527344 87.179688 C 67.527344 86.394531 68.164062 85.753906 68.953125 85.753906 Z M 68.953125 85.753906 " fill-opacity="1" fill-rule="nonzero"/><path stroke-linecap="round" transform="matrix(0.113319, 0, 0, 0.113319, 63.338479, 62.24852)" fill="none" stroke-linejoin="round" d="M -69.585189 -36.595289 C -69.585189 -36.595289 -80.029944 31.657567 3.493628 36.58694 C 3.493628 36.58694 65.300381 34.622085 70.022927 -27.83962 " stroke="#000001" stroke-width="6" stroke-opacity="1" stroke-miterlimit="4"/><path stroke-linecap="round" transform="matrix(0.113319, 0, 0, 0.113319, 85.296265, 85.722081)" fill="none" stroke-linejoin="round" d="M -13.817544 -151.736881 C -13.817544 -151.736881 -9.853363 -109.923388 -9.853363 -109.923388 C -9.853363 -109.923388 -3.131491 -42.84255 -3.131491 21.377184 C -3.131491 21.377184 -3.131491 84.080187 -3.131491 84.080187 C -3.131491 84.080187 -3.993269 133.925455 13.82831 151.747034 " stroke="#000001" stroke-width="6" stroke-opacity="1" stroke-miterlimit="4"/><g clip-path="url(#e34fb40f51)"><path fill="#f9a55d" d="M 41.988281 83.25 C 48.285156 67.101562 43.417969 64.066406 40.390625 63.589844 C 40.390625 63.589844 38.441406 63.582031 38.441406 63.582031 C 38.441406 63.582031 17.734375 79.824219 14.890625 98.460938 C 14.890625 98.460938 33.945312 94.136719 33.945312 94.136719 C 33.945312 94.136719 37.246094 91.089844 40.316406 86.183594 C 40.886719 85.269531 41.453125 84.289062 41.988281 83.25 Z M 41.988281 83.25 " fill-opacity="1" fill-rule="nonzero"/></g><path stroke-linecap="round" transform="matrix(0.113319, 0, 0, 0.113319, 46.878147, 73.425782)" fill="none" stroke-linejoin="round" d="M -43.323525 95.036922 C 8.176358 -44.846964 -27.777041 -69.562771 -27.777041 -69.562771 C -27.777041 -69.562771 -3.509359 -86.591514 43.33692 -95.036943 " stroke="#000001" stroke-width="6" stroke-opacity="1" stroke-miterlimit="4"/><path fill="#fffbfb" d="M 105.132812 63.976562 C 105.132812 63.976562 90.828125 61.351562 90.828125 61.351562 C 90.828125 61.351562 82.359375 79.824219 82.359375 79.824219 C 82.359375 79.824219 80.054688 85.710938 71.761719 85.710938 C 71.761719 85.710938 78.007812 93.175781 91.359375 87.863281 C 91.359375 87.863281 105.132812 63.976562 105.132812 63.976562 Z M 105.132812 63.976562 " fill-opacity="1" fill-rule="nonzero"/><path fill="#fde5cc" d="M 91.714844 80.792969 C 91.714844 80.792969 90.570312 90.261719 90.570312 90.261719 C 90.570312 90.261719 94.054688 91.59375 94.054688 91.59375 C 94.054688 91.59375 100.015625 87.429688 100.015625 87.429688 C 100.015625 87.429688 98.964844 80.847656 98.964844 80.847656 C 98.964844 80.847656 94.195312 79.914062 94.195312 79.914062 C 94.195312 79.914062 91.714844 80.792969 91.714844 80.792969 Z M 91.714844 80.792969 " fill-opacity="1" fill-rule="nonzero"/><path fill="#fde5cc" d="M 103.820312 76.296875 C 103.820312 76.296875 101.476562 72.992188 103.257812 69.710938 C 103.257812 69.710938 104.476562 66.992188 101.382812 68.398438 C 101.382812 68.398438 97.164062 69.898438 99.226562 74.585938 C 99.226562 74.585938 100.539062 79.367188 100.539062 79.367188 C 100.539062 79.367188 103.820312 76.296875 103.820312 76.296875 Z M 103.820312 76.296875 " fill-opacity="1" fill-rule="nonzero"/><path fill="#fde5cc" d="M 103.886719 91.300781 C 103.886719 91.300781 103.167969 82.625 105.328125 79.011719 C 105.328125 79.011719 107.125 75.636719 102.691406 73.957031 C 102.691406 73.957031 97.414062 72.039062 97.414062 72.039062 C 97.414062 72.039062 94.894531 71.082031 94.175781 73.476562 C 94.175781 73.476562 92.738281 75.839844 97.414062 77.476562 C 97.414062 77.476562 91.539062 78.480469 91.539062 78.480469 C 91.539062 78.480469 89.261719 79.363281 90.21875 81.574219 C 90.21875 81.574219 91.558594 83.730469 93.214844 82.070312 C 93.214844 82.070312 91.058594 85.328125 96.09375 85.328125 C 96.09375 85.328125 94.054688 91.820312 94.054688 91.820312 C 94.054688 91.820312 103.886719 91.300781 103.886719 91.300781 Z M 103.886719 91.300781 " fill-opacity="1" fill-rule="nonzero"/><path stroke-linecap="round" transform="matrix(0.113319, 0, 0, 0.113319, 101.01313, 70.976424)" fill="none" stroke-linejoin="round" d="M 14.810139 26.3027 C 14.810139 26.3027 -20.660664 13.410494 -20.660664 13.410494 C -20.660664 13.410494 -20.764077 -26.300259 20.670233 -26.300259 " stroke="#000001" stroke-width="6" stroke-opacity="1" stroke-miterlimit="4"/><path stroke-linecap="round" transform="matrix(0.113319, 0, 0, 0.113319, 94.644005, 81.810326)" fill="none" stroke-linejoin="round" d="M -12.577324 2.29428 C -12.577324 2.29428 12.586608 -2.290381 12.586608 -2.290381 " stroke="#000001" stroke-width="6" stroke-opacity="1" stroke-miterlimit="4"/><path stroke-linecap="round" transform="matrix(0.113319, 0, 0, 0.113319, 94.301098, 81.804775)" fill="none" stroke-linejoin="round" d="M 38.57041 -82.145496 C 38.57041 -82.145496 5.891769 -100.897796 -1.105872 -73.49324 C -1.105872 -73.49324 -12.102166 -49.087673 27.470702 -38.194793 C 27.470702 -38.194793 -24.373892 -29.33571 -24.373892 -29.33571 C -24.373892 -29.33571 -45.78047 -25.785183 -36.025137 -2.034567 C -36.025137 -2.034567 -31.854129 16.683262 -9.585773 2.343267 C -9.585773 2.343267 -29.130909 31.092198 15.819457 31.092198 C 15.819457 31.092198 -2.174478 88.383232 -2.174478 88.383232 " stroke="#000001" stroke-width="6" stroke-opacity="1" stroke-miterlimit="4"/><path fill="#f9a55d" d="M 89.980469 85.253906 C 89.980469 85.253906 96.8125 90.503906 105.328125 84.628906 C 105.328125 84.628906 106.765625 102.917969 106.765625 102.917969 C 106.765625 102.917969 86.863281 102.917969 86.863281 102.917969 C 86.863281 102.917969 89.980469 85.253906 89.980469 85.253906 Z M 89.980469 85.253906 " fill-opacity="1" fill-rule="nonzero"/><path stroke-linecap="round" transform="matrix(0.113319, 0, 0, 0.113319, 96.0945, 93.773464)" fill="none" stroke-linejoin="round" d="M -81.461925 80.696707 C -81.461925 80.696707 -53.953956 -75.181787 -53.953956 -75.181787 C -53.953956 -75.181787 9.921066 -38.125312 81.483153 -80.697169 " stroke="#000001" stroke-width="6" stroke-opacity="1" stroke-miterlimit="4"/><path fill="#000001" d="M 60.800781 106.589844 C 60.800781 106.589844 62.925781 108.355469 62.925781 108.355469 C 62.925781 108.355469 67.679688 109.40625 67.679688 109.40625 C 67.679688 109.40625 73.789062 107.070312 73.789062 107.070312 C 73.789062 107.070312 80.070312 101.480469 80.070312 101.480469 C 80.070312 101.480469 75.523438 101.066406 75.523438 101.066406 C 75.523438 101.066406 60.800781 106.589844 60.800781 106.589844 Z M 60.800781 106.589844 " fill-opacity="1" fill-rule="nonzero"/><path fill="#879cd0" d="M 49.046875 103.78125 C 49.046875 103.78125 62.925781 108.355469 62.925781 108.355469 C 62.925781 108.355469 80.070312 101.480469 80.070312 101.480469 C 80.070312 101.480469 76.105469 98.625 76.105469 98.625 C 76.105469 98.625 63.574219 104.0625 63.574219 104.0625 C 63.574219 104.0625 52.3125 101.066406 52.3125 101.066406 C 52.3125 101.066406 49.046875 103.78125 49.046875 103.78125 Z M 49.046875 103.78125 " fill-opacity="1" fill-rule="nonzero"/><path fill="#fde5cc" d="M 48.886719 93.300781 C 48.886719 93.300781 54.652344 92.039062 54.652344 92.039062 C 54.652344 92.039062 59.464844 88.691406 65.289062 92.597656 C 65.289062 92.597656 68.441406 95.1875 69.847656 96.597656 C 69.847656 96.597656 73.050781 99.511719 69.847656 101.160156 C 69.847656 101.160156 67.910156 102.8125 65.386719 99.21875 C 65.386719 99.21875 65.675781 100.480469 63.929688 101.0625 C 63.929688 101.0625 62.804688 101.789062 61.691406 100.675781 C 61.691406 100.675781 62.148438 102.519531 60.078125 103.492188 C 60.078125 103.492188 58.839844 103.941406 57.816406 102.917969 C 57.816406 102.917969 58.105469 104.042969 56.359375 104.542969 C 56.359375 104.542969 54.652344 104.460938 54.652344 103.394531 C 54.652344 103.394531 51.703125 104.542969 51.703125 104.542969 C 51.703125 104.542969 45.003906 98.929688 45.003906 98.929688 C 45.003906 98.929688 48.886719 93.300781 48.886719 93.300781 Z M 48.886719 93.300781 " fill-opacity="1" fill-rule="nonzero"/><g clip-path="url(#6ab1cd243b)"><path fill="#f9a55d" d="M 15.082031 99.605469 C 14.96875 99.246094 14.902344 98.863281 14.890625 98.460938 C 14.691406 92.0625 22.488281 88.914062 27.675781 88.675781 C 30.269531 88.558594 32.882812 88.816406 35.425781 89.320312 C 36.617188 89.554688 37.796875 89.847656 38.957031 90.203125 C 39.832031 90.472656 41.0625 91.253906 41.949219 91.300781 C 41.949219 91.300781 54.652344 92.039062 54.652344 92.039062 C 54.652344 92.039062 47.550781 95.835938 51.703125 104.542969 C 51.703125 104.542969 24.207031 104.542969 24.109375 104.542969 C 21.058594 104.542969 16.121094 102.914062 15.082031 99.605469 Z M 15.082031 99.605469 " fill-opacity="1" fill-rule="nonzero"/></g><path stroke-linecap="round" transform="matrix(0.113319, 0, 0, 0.113319, 64.558152, 98.233093)" fill="none" stroke-linejoin="round" d="M 7.311781 8.69804 C 7.311781 8.69804 -7.303982 -8.709885 -7.303982 -8.709885 " stroke="#000001" stroke-width="6" stroke-opacity="1" stroke-miterlimit="4"/><path stroke-linecap="round" transform="matrix(0.113319, 0, 0, 0.113319, 61.12061, 99.947603)" fill="none" stroke-linejoin="round" d="M 5.037051 6.425895 C 5.037051 6.425895 -5.028521 -6.43184 -5.028521 -6.43184 " stroke="#000001" stroke-width="6" stroke-opacity="1" stroke-miterlimit="4"/><path stroke-linecap="round" transform="matrix(0.113319, 0, 0, 0.113319, 57.40543, 102.003219)" fill="none" stroke-linejoin="round" d="M 3.626707 8.07231 C 3.626707 8.07231 -3.612232 -8.060184 -3.612232 -8.060184 " stroke="#000001" stroke-width="6" stroke-opacity="1" stroke-miterlimit="4"/><path stroke-linecap="round" transform="matrix(0.113319, 0, 0, 0.113319, 54.094803, 102.240625)" fill="none" stroke-linejoin="round" d="M 4.920082 10.182777 C 4.920082 10.182777 -4.904193 -10.155196 -4.904193 -10.155196 " stroke="#000001" stroke-width="6" stroke-opacity="1" stroke-miterlimit="4"/><path stroke-linecap="round" transform="matrix(0.113319, 0, 0, 0.113319, 38.495243, 90.437838)" fill="none" stroke-linejoin="round" d="M -142.565129 -5.863079 C -142.565129 -5.863079 -69.176072 -31.544078 30.445522 7.615137 C 30.445522 7.615137 142.58014 14.130182 142.58014 14.130182 " stroke="#000001" stroke-width="6" stroke-opacity="1" stroke-miterlimit="4"/><path fill="#000001" d="M 65.535156 50.207031 C 67.816406 50.054688 70.179688 49.457031 72.074219 48.128906 C 73.648438 47.023438 75.816406 44.414062 75.09375 42.304688 C 74.464844 40.472656 72.480469 41.382812 71.085938 41.246094 C 69.824219 41.121094 68.707031 40.535156 67.769531 39.699219 C 67.046875 39.058594 66.59375 38.300781 65.667969 37.941406 C 63.496094 37.105469 61.664062 38.488281 60.550781 40.308594 C 60.550781 40.308594 58.199219 39.0625 55.96875 41.296875 C 53.808594 43.453125 55.296875 46.515625 56.398438 48.808594 C 56.738281 49.511719 59.730469 55.304688 61.121094 54.082031 C 61.121094 54.082031 65.535156 50.207031 65.535156 50.207031 Z M 65.535156 50.207031 " fill-opacity="1" fill-rule="nonzero"/><path fill="#fde5cc" d="M 63.554688 58.851562 C 63.554688 58.851562 62.4375 58.609375 62.4375 58.609375 C 59.4375 57.957031 57.535156 54.996094 58.183594 52 C 58.183594 52 59.101562 47.785156 59.101562 47.785156 C 59.75 44.785156 62.710938 42.882812 65.710938 43.535156 C 65.710938 43.535156 66.828125 43.777344 66.828125 43.777344 C 69.828125 44.429688 71.730469 47.386719 71.082031 50.386719 C 71.082031 50.386719 70.167969 54.601562 70.167969 54.601562 C 69.515625 57.597656 66.554688 59.503906 63.554688 58.851562 Z M 63.554688 58.851562 " fill-opacity="1" fill-rule="nonzero"/><path fill="#fffbfb" d="M 62.265625 52.976562 C 63.78125 53.914062 65.699219 54.992188 67.542969 54.125 C 69.398438 53.886719 68.871094 55.230469 68.871094 55.230469 C 68.46875 57.070312 65.808594 57.496094 64.273438 57.21875 C 62.507812 56.902344 60.5 55.320312 60.597656 53.433594 C 60.597656 53.433594 60.675781 51.992188 62.265625 52.976562 Z M 62.265625 52.976562 " fill-opacity="1" fill-rule="nonzero"/><path fill="#000001" d="M 57.40625 50.664062 C 57.40625 50.664062 59.046875 54.085938 60.257812 49.210938 C 60.257812 49.210938 60.550781 47.78125 60.550781 47.78125 C 60.550781 47.78125 60.894531 45.710938 62.6875 45.710938 C 62.6875 45.710938 66.214844 47.933594 71.273438 46.898438 C 71.273438 46.898438 70.476562 43.785156 70.476562 43.785156 C 70.476562 43.785156 65.8125 41.933594 65.8125 41.933594 C 65.8125 41.933594 61.144531 41.714844 61.144531 41.714844 C 61.144531 41.714844 58.476562 45.789062 58.476562 45.789062 C 58.476562 45.789062 57.40625 50.667969 57.40625 50.667969 C 57.40625 50.667969 57.40625 50.664062 57.40625 50.664062 Z M 57.40625 50.664062 " fill-opacity="1" fill-rule="nonzero"/><path fill="#879cd0" d="M 58.378906 114.195312 C 58.378906 114.195312 85.078125 114.195312 85.078125 114.195312 C 85.078125 114.195312 116.632812 111.058594 116.632812 111.058594 C 116.632812 111.058594 119.28125 103.351562 119.28125 103.351562 C 119.28125 103.351562 73.800781 108.777344 73.800781 108.777344 C 73.800781 108.777344 62.300781 111.105469 62.300781 111.105469 C 62.300781 111.105469 59.082031 111.753906 59.082031 111.753906 C 59.082031 111.753906 56.71875 112.535156 58.378906 114.199219 C 58.378906 114.199219 58.378906 114.195312 58.378906 114.195312 Z M 58.378906 114.195312 " fill-opacity="1" fill-rule="nonzero"/><g clip-path="url(#edb16d26a0)"><path fill="#879cd0" d="M 84.269531 108.441406 C 84.269531 108.441406 96.988281 82.269531 96.988281 82.269531 C 96.988281 82.269531 97.960938 77.558594 106.03125 77.558594 C 106.03125 77.558594 126.265625 76.335938 126.265625 76.335938 C 126.265625 76.335938 131.550781 75.464844 127.710938 82.617188 C 127.710938 82.617188 118.152344 105.824219 118.152344 105.824219 C 118.152344 105.824219 117.132812 109.660156 113 109.660156 C 113 109.660156 86.625 112.453125 86.625 112.453125 C 86.625 112.453125 82.457031 112.164062 84.265625 108.4375 C 84.265625 108.4375 84.269531 108.441406 84.269531 108.441406 Z M 84.269531 108.441406 " fill-opacity="1" fill-rule="nonzero"/></g><path fill="#fffbfb" d="M 106.6875 91.25 C 109.324219 89.117188 112.59375 88.789062 113.992188 90.515625 C 115.394531 92.246094 114.394531 95.375 111.757812 97.511719 C 109.125 99.644531 105.855469 99.972656 104.453125 98.246094 C 103.054688 96.515625 104.054688 93.386719 106.6875 91.25 Z M 106.6875 91.25 " fill-opacity="1" fill-rule="nonzero"/><path fill="#000001" d="M 63.167969 49.914062 C 63.558594 50.003906 63.800781 50.394531 63.710938 50.785156 C 63.621094 51.175781 63.230469 51.417969 62.839844 51.328125 C 62.449219 51.238281 62.207031 50.847656 62.296875 50.457031 C 62.386719 50.066406 62.777344 49.820312 63.167969 49.914062 Z M 63.167969 49.914062 " fill-opacity="1" fill-rule="nonzero"/><path fill="#000001" d="M 68.8125 51.136719 C 69.203125 51.230469 69.449219 51.617188 69.359375 52.007812 C 69.269531 52.402344 68.878906 52.644531 68.488281 52.554688 C 68.097656 52.464844 67.851562 52.074219 67.941406 51.683594 C 68.035156 51.292969 68.421875 51.046875 68.8125 51.136719 Z M 68.8125 51.136719 " fill-opacity="1" fill-rule="nonzero"/><path stroke-linecap="round" transform="matrix(0.113319, 0, 0, 0.113319, 69.086481, 49.650652)" fill="none" stroke-linejoin="round" d="M 11.543034 4.185938 C 11.543034 4.185938 3.787028 -10.671123 -11.55263 -0.812377 " stroke="#000001" stroke-width="6" stroke-opacity="1" stroke-miterlimit="4"/><path stroke-linecap="round" transform="matrix(0.113319, 0, 0, 0.113319, 63.60749, 48.460794)" fill="none" stroke-linejoin="round" d="M 11.529992 4.206742 C 11.529992 4.206742 3.773986 -10.68479 -11.5312 -0.826044 " stroke="#000001" stroke-width="6" stroke-opacity="1" stroke-miterlimit="4"/></svg>